<svg width="124" height="124" viewBox="0 0 124 124" fill="none" xmlns="http://www.w3.org/2000/svg">
<path d="M70.0402 11.5001C69.326 21.4999 62.54 40.9999 62.54 40.9999C62.54 40.9999 55.54 22.4999 54.0402 11.5001C53.0401 -2.50012 71.0402 -2.49994 70.0402 11.5001Z" fill="#6C286C" stroke="#6C286C" stroke-linejoin="round"/>
<path d="M70.0402 112.5C69.326 102.5 62.54 83.0001 62.54 83.0001C62.54 83.0001 55.54 101.5 54.0402 112.5C53.0401 126.5 71.0402 126.5 70.0402 112.5Z" fill="#6C286C" stroke="#6C286C" stroke-linejoin="round"/>
<path d="M103.977 31.7742C96.4011 38.34 77.8141 47.3302 77.8141 47.3302C77.8141 47.3302 85.9458 29.299 92.6633 20.4604C101.856 9.85363 114.584 22.5817 103.977 31.7742Z" fill="#6C286C" stroke="#6C286C" stroke-linejoin="round"/>
<path d="M103.977 92.888C96.4011 86.3221 77.8141 77.3319 77.8141 77.3319C77.8141 77.3319 85.9458 95.3631 92.6633 104.202C101.856 114.808 114.584 102.08 103.977 92.888Z" fill="#6C286C" stroke="#6C286C" stroke-linejoin="round"/>
<path d="M31.7668 20.4532C38.3327 28.0291 47.3229 46.6161 47.3229 46.6161C47.3229 46.6161 29.2917 38.4843 20.4531 31.7668C9.8463 22.5744 22.5744 9.84656 31.7668 20.4532Z" fill="#6C286C" stroke="#6C286C" stroke-linejoin="round"/>
<path d="M11.5001 54.0402C21.4999 54.7545 40.9999 61.5404 40.9999 61.5404C40.9999 61.5404 22.4999 68.5404 11.5001 70.0402C-2.50012 71.0403 -2.49994 53.0403 11.5001 54.0402Z" fill="#6C286C" stroke="#6C286C" stroke-linejoin="round"/>
<path d="M112.5 54.0402C102.5 54.7545 83 61.5404 83 61.5404C83 61.5404 101.5 68.5404 112.5 70.0402C126.5 71.0403 126.5 53.0403 112.5 54.0402Z" fill="#6C286C" stroke="#6C286C" stroke-linejoin="round"/>
<path d="M31.7668 104.209C38.3327 96.633 47.3229 78.046 47.3229 78.046C47.3229 78.046 29.2917 86.1778 20.4531 92.8953C9.8463 102.088 22.5744 114.816 31.7668 104.209Z" fill="#6C286C" stroke="#6C286C" stroke-linejoin="round"/>
<circle cx="62" cy="62" r="16" fill="#6C286C"/>
</svg>
