<svg fill="none" height="32" viewBox="0 0 32 32" width="32" xmlns="http://www.w3.org/2000/svg"><g fill="#292929"><path d="m16 3c-2.5712 0-5.0846.76244-7.22241 2.19089-2.13784 1.42846-3.80408 3.45878-4.78802 5.83421-.98394 2.3755-1.24138 4.9893-.73977 7.5111.5016 2.5217 1.73973 4.8381 3.55782 6.6562 1.81808 1.8181 4.13448 3.0562 6.65618 3.5578 2.5218.5016 5.1356.2442 7.5111-.7398 2.3754-.9839 4.4057-2.6502 5.8342-4.788s2.1909-4.6512 2.1909-7.2224c0-1.7072-.3363-3.3977-.9896-4.9749-.6533-1.57722-1.6109-3.01033-2.818-4.21749-1.2072-1.20716-2.6403-2.16473-4.2175-2.81804-1.5772-.65332-3.2677-.98957-4.9749-.98957zm0 23.4c-2.0569 0-4.0677-.61-5.7779-1.7527-1.7103-1.1428-3.04329-2.767-3.83044-4.6674-.78715-1.9003-.99311-3.9914-.59182-6.0088.40128-2.0174 1.39179-3.8705 2.84625-5.32501 1.45451-1.45447 3.30761-2.44497 5.32501-2.84626 2.0174-.40128 4.1085-.19533 6.0088.59182 1.9004.78715 3.5246 2.12015 4.6674 3.83045 1.1427 1.7102 1.7527 3.721 1.7527 5.7779 0 2.7582-1.0957 5.4035-3.0461 7.3539s-4.5956 3.0461-7.3539 3.0461z"/><path d="m14.076 15.714c.4241-.0862.8036-.3206 1.0704-.6613s.4035-.7653.3856-1.1977c0-1.3-1.001-2.08-2.522-2.08h-3.51v8.45h3.51c1.69-.065 2.99-.936 2.99-2.444.0122-.2627-.0282-.5252-.1188-.7722-.0905-.2469-.2295-.4732-.4087-.6658-.1792-.1925-.395-.3473-.6348-.4553s-.4988-.1671-.7617-.1737zm-2.938-2.743h1.495c.78 0 1.235.416 1.235 1.105s-.494 1.157-1.625 1.157h-1.105zm1.3 5.941h-1.3v-2.522h1.599c.975 0 1.521.494 1.521 1.3s-.546 1.222-1.872 1.222zm7.137-5.122c-.3942-.0328-.7908.02-1.1627.1548-.3718.1348-.7102.3485-.9917.6263-.2815.2779-.4997.6133-.6394.9834-.1398.37-.1978.7659-.1702 1.1605v.585c-.032.4059.025.8138.1672 1.1954.1421.3815.3658.7274.6556 1.0134.2897.286.6384.5053 1.0218.6425.3833.1371.792.1889 1.1974.1517.6417.0762 1.2888-.0893 1.8151-.4642.5264-.3749.8942-.9324 1.0319-1.5638h-1.573c-.0814.2704-.2578.5023-.4967.6528-.239.1505-.5243.2095-.8033.1662-.1987.005-.3962-.0327-.5792-.1105-.1829-.0778-.3471-.1939-.4814-.3405-.1342-.1466-.2355-.3203-.297-.5094-.0615-.189-.0818-.3891-.0594-.5866v-.182h4.29v-.611c.0306-.3937-.0237-.7894-.1593-1.1602-.1357-.3709-.3494-.7083-.6268-.9894-.2773-.281-.6119-.4992-.9809-.6397s-.7639-.2001-1.158-.1747zm1.3 2.6h-2.626c-.0163-.1803.0052-.362.0632-.5335s.1512-.329.2736-.4624.2713-.2397.4371-.3122c.1659-.0726.3451-.1096.5261-.1089.181-.0007.3602.0363.5261.1089.1658.0725.3147.1788.4371.3122s.2156.2909.2736.4624c.0579.1715.0795.3532.0632.5335zm-3.25-4.03h3.9v.65h-3.9z"/></g></svg>