<svg width="33" height="33" viewBox="0 0 33 33" fill="none" xmlns="http://www.w3.org/2000/svg">
<path d="M11.3554 8.6344C12.1407 8.6344 12.8474 8.7024 13.4954 8.84107C14.1394 8.9784 14.6887 9.20507 15.1527 9.5184C15.6101 9.83173 15.9674 10.2477 16.2247 10.7704C16.4741 11.2864 16.5981 11.9317 16.5981 12.6944C16.5981 13.5211 16.4114 14.2117 16.0367 14.7624C15.6594 15.3144 15.1034 15.7664 14.3621 16.1157C15.3714 16.4077 16.1194 16.9184 16.6154 17.6437C17.1141 18.3757 17.3581 19.2517 17.3581 20.2784C17.3581 21.1117 17.1994 21.8277 16.8807 22.4291C16.5737 23.0215 16.1282 23.531 15.5821 23.9144C15.0164 24.3083 14.3846 24.5973 13.7167 24.7677C13.0165 24.9515 12.2954 25.0439 11.5714 25.0424H3.61807V8.6344H11.3554ZM10.8874 15.2637C11.5274 15.2637 12.0581 15.1117 12.4767 14.8037C12.8927 14.4997 13.0941 13.9984 13.0941 13.3117C13.0941 12.9304 13.0261 12.6157 12.8927 12.3691C12.7628 12.1318 12.5706 11.9344 12.3367 11.7984C12.092 11.6532 11.8218 11.556 11.5407 11.5117C11.2343 11.4546 10.9231 11.4273 10.6114 11.4304H7.23141V15.2637H10.8874V15.2637ZM11.0887 22.2491C11.4447 22.2491 11.7834 22.2184 12.1021 22.1464C12.4234 22.0771 12.7087 21.9651 12.9514 21.7984C13.1941 21.6384 13.3941 21.4211 13.5381 21.1437C13.6834 20.8691 13.7541 20.5104 13.7541 20.0797C13.7541 19.2344 13.5154 18.6331 13.0434 18.2691C12.5701 17.9091 11.9354 17.7304 11.1581 17.7304H7.23141V22.2504H11.0887V22.2491ZM22.5087 22.1944C22.9981 22.6717 23.7034 22.9117 24.6207 22.9117C25.2781 22.9117 25.8461 22.7451 26.3247 22.4144C26.7967 22.0824 27.0847 21.7277 27.1954 21.3611H30.0687C29.6074 22.7904 28.9074 23.8117 27.9501 24.4264C27.0047 25.0437 25.8541 25.3504 24.5101 25.3504C23.5741 25.3504 22.7314 25.1997 21.9767 24.9011C21.2524 24.619 20.5978 24.1832 20.0581 23.6237C19.5273 23.0512 19.1169 22.3779 18.8514 21.6437C18.5595 20.8319 18.4151 19.9744 18.4247 19.1117C18.4247 18.2237 18.5727 17.3931 18.8634 16.6264C19.1393 15.8853 19.563 15.208 20.1087 14.6357C20.6487 14.0757 21.2887 13.6344 22.0341 13.3104C22.8178 12.9808 23.6612 12.8165 24.5114 12.8277C25.5167 12.8277 26.3954 13.0224 27.1501 13.4144C27.8819 13.7886 28.5165 14.3282 29.0034 14.9904C29.4874 15.6477 29.8327 16.4011 30.0474 17.2451C30.2621 18.0877 30.3367 18.9677 30.2754 19.8891H21.7007C21.7021 20.8277 22.0181 21.7171 22.5087 22.1944V22.1944ZM26.2581 15.9531C25.8701 15.5237 25.2141 15.2917 24.4114 15.2917C23.8901 15.2917 23.4594 15.3784 23.1127 15.5571C22.7958 15.7172 22.5145 15.9399 22.2861 16.2117C22.0854 16.4586 21.9367 16.7434 21.8487 17.0491C21.7718 17.304 21.7222 17.5663 21.7007 17.8317H27.0101C26.9327 16.9997 26.6474 16.3851 26.2581 15.9531V15.9531ZM21.0341 9.73573H27.6861V11.3557H21.0341V9.73573Z" fill="#799DD2"/>
</svg>
