<svg fill="none" height="32" viewBox="0 0 32 32" width="32" xmlns="http://www.w3.org/2000/svg"><path d="m16 4c-3.3043 0-6.13043 1.17391-8.47826 3.52174s-3.52174 5.17396-3.52174 8.47826 1.17391 6.1304 3.52174 8.4783c2.34783 2.3478 5.17396 3.5217 8.47826 3.5217s6.1304-1.1739 8.4783-3.5217c2.3478-2.3479 3.5217-5.174 3.5217-8.4783s-1.1739-6.13043-3.5217-8.47826c-2.3479-2.34783-5.174-3.52174-8.4783-3.52174zm7.3565 6.2087c1.287 1.6 1.9478 3.3913 1.9826 5.3739-1.3565-.313-2.6261-.4696-3.8087-.4696-.8695 0-1.7739.087-2.713.2609-.1391-.3478-.3478-.8348-.6261-1.4609 2.087-.9391 3.8087-2.1739 5.1652-3.7043zm-7.3565-3.6c2.1565 0 4.1043.69565 5.8435 2.08695-1.0435 1.28696-2.5739 2.38265-4.5913 3.28695-.9044-1.7391-1.9826-3.44347-3.2348-5.11303.6956-.17392 1.3565-.26087 1.9826-.26087zm-4.1217.9913c1.2521 1.56522 2.3652 3.2696 3.3391 5.113-2.4.6957-4.8696 1.0435-7.4087 1.0435h-.15653c-.34782 0-.5913-.0174-.73043-.0522.66087-2.7826 2.31304-4.81734 4.95656-6.1043zm-5.2696 8.4v-.1565c.17391.0348.52173.0522 1.04347.0522 3.13043 0 5.96523-.4174 8.50433-1.2522.0696.1391.1652.3478.287.6261.1217.2782.2174.4869.2869.6261-1.9826.6608-3.7565 1.7043-5.3217 3.1304-1.113 1.0087-1.96522 2.0174-2.55653 3.0261-1.49565-1.7739-2.24347-3.7913-2.24347-6.0522zm9.3913 9.3913c-2.087 0-3.9478-.6261-5.5826-1.8783.8-1.1478 1.5304-2.0347 2.1913-2.6608 1.3913-1.3565 3.0087-2.3479 4.8522-2.9739.7304 2.0174 1.3565 4.313 1.8782 6.8869-1.0434.4174-2.1565.6261-3.3391.6261zm5.3217-1.6696c-.3826-1.913-.9565-4.0174-1.7217-6.313.5913-.1044 1.2174-.1565 1.8783-.1565h.0521c1.1131 0 2.3305.1565 3.6522.4695-.4174 2.4696-1.7043 4.4696-3.8609 6z" fill="#292929"/></svg>