<svg width="33" height="33" viewBox="0 0 33 33" fill="none" xmlns="http://www.w3.org/2000/svg">
<path fill-rule="evenodd" clip-rule="evenodd" d="M17.0277 3.65979C9.68239 3.65979 3.72906 9.61312 3.72906 16.9585C3.72906 22.8331 7.53839 27.8185 12.8237 29.5785C13.4891 29.6985 13.7291 29.2891 13.7291 28.9371C13.7291 28.6211 13.7184 27.7838 13.7144 26.6758C10.0144 27.4785 9.23306 24.8918 9.23306 24.8918C8.63039 23.3558 7.75706 22.9465 7.75706 22.9465C6.55039 22.1211 7.84906 22.1398 7.84906 22.1398C9.18506 22.2331 9.88506 23.5105 9.88506 23.5105C11.0717 25.5425 12.9997 24.9558 13.7544 24.6158C13.8757 23.7558 14.2224 23.1691 14.6011 22.8371C11.6491 22.5025 8.54506 21.3611 8.54506 16.2638C8.54506 14.8145 9.06372 13.6251 9.91039 12.6971C9.77572 12.3598 9.31572 11.0065 10.0424 9.17712C10.0424 9.17712 11.1584 8.81846 13.6984 10.5385C14.7832 10.2434 15.9022 10.0927 17.0264 10.0905C18.1506 10.0923 19.2697 10.2429 20.3544 10.5385C22.8957 8.81712 24.0104 9.17712 24.0104 9.17712C24.7371 11.0065 24.2811 12.3598 24.1424 12.6971C24.9957 13.6251 25.5077 14.8131 25.5077 16.2638C25.5077 21.3745 22.4011 22.4971 19.4384 22.8265C19.9117 23.2371 20.3384 24.0478 20.3384 25.2878C20.3384 27.0665 20.3224 28.5011 20.3224 28.9371C20.3224 29.2931 20.5597 29.7065 21.2384 29.5758C26.5211 27.8131 30.3264 22.8318 30.3264 16.9585C30.3264 9.61312 24.3731 3.65979 17.0277 3.65979Z" fill="#799DD2"/>
</svg>
