<svg fill="none" height="32" viewBox="0 0 32 32" width="32" xmlns="http://www.w3.org/2000/svg"><path d="m21.7612 3.08342c1.3195.06066 2.2316.25458 3.0745.58175.7991.29879 1.5226.77002 2.119 1.38016.6101.59636 1.0813 1.31985 1.3801 2.119.3272.84392.5211 1.755.5818 3.07447.0747 1.6359.0834 2.2122.0834 5.7612s-.0087 4.1253-.0834 5.7612c-.0607 1.3195-.2546 2.2316-.5818 3.0756-.2989.7987-.7701 1.5218-1.3801 2.1179-.5964.6101-1.3199 1.0814-2.119 1.3801-.8439.3272-1.755.5211-3.0745.5818-1.6359.0747-2.2111.0834-5.7612.0834s-4.1264-.0087-5.7612-.0834c-1.31947-.0607-2.23163-.2546-3.07555-.5818-.79878-.2989-1.52189-.7701-2.11792-1.3801-.61014-.5964-1.08137-1.3199-1.38016-2.119-.32717-.8439-.52109-1.755-.58175-3.0745-.07475-1.6337-.08342-2.21-.08342-5.7612 0-3.5501.00867-4.1275.08342-5.7612.06066-1.31947.25458-2.23163.58175-3.07447.29879-.79915.77002-1.52264 1.38016-2.119.59605-.61001 1.31916-1.08123 2.11792-1.38016.845-.32717 1.75608-.52109 3.07555-.58175 1.6337-.07475 2.21-.08342 5.7612-.08342 3.5501 0 4.1275.00867 5.7612.08342zm-5.7612 2.80583c-3.51 0-4.0473.00758-5.6301.08017-1.00423.0455-1.60657.17333-2.16015.38891-.47125.18417-.77133.37917-1.12233.72909-.351.351-.546.65108-.72909 1.12233-.2145.5525-.34341 1.15592-.38891 2.16015-.07259 1.5828-.08017 2.1201-.08017 5.6301s.00758 4.0473.08017 5.6301c.0455 1.0042.17333 1.6066.38891 2.1591.18417.4723.37917.7724.72909 1.1234.351.351.65108.546 1.12233.7291.5525.2145 1.15592.3434 2.16015.3889 1.5839.0726 2.1212.0802 5.6301.0802 3.51 0 4.0463-.0076 5.6301-.0802 1.0042-.0455 1.6066-.1733 2.1602-.3889.4712-.1842.7713-.3792 1.1223-.7291.351-.351.546-.6511.7291-1.1223.2145-.5525.3434-1.156.3889-2.1602.0726-1.5838.0802-2.1212.0802-5.6301s-.0076-4.0462-.0802-5.6301c-.0455-1.00423-.1733-1.60657-.3889-2.15907-.1532-.42566-.4028-.81014-.7291-1.12341-.3133-.3264-.6978-.57593-1.1234-.72909-.5525-.2145-1.156-.34341-2.1602-.38891-1.5828-.07259-2.1201-.08017-5.6301-.08017zm0 16.85125c-1.7877 0-3.5022-.7102-4.7663-1.9742-1.26404-1.2641-1.9742-2.9786-1.9742-4.7663s.71016-3.5022 1.9742-4.7663c1.2641-1.26404 2.9786-1.9742 4.7663-1.9742s3.5022.71016 4.7663 1.9742c1.264 1.2641 1.9742 2.9786 1.9742 4.7663s-.7102 3.5022-1.9742 4.7663c-1.2641 1.264-2.9786 1.9742-4.7663 1.9742zm0-2.8882c1.0217 0 2.0016-.4058 2.724-1.1283.7225-.7224 1.1283-1.7023 1.1283-2.724s-.4058-2.0016-1.1283-2.724c-.7224-.7225-1.7023-1.1283-2.724-1.1283s-2.0016.4058-2.724 1.1283c-.7225.7224-1.1283 1.7023-1.1283 2.724s.4058 2.0016 1.1283 2.724c.7224.7225 1.7023 1.1283 2.724 1.1283zm6.7405-9.1487c-.3831 0-.7506-.1522-1.0215-.4231-.2709-.271-.4231-.6384-.4231-1.02154s.1522-.75059.4231-1.02151.6384-.42312 1.0215-.42312.7506.1522 1.0215.42312.4231.63837.4231 1.02151-.1522.75054-.4231 1.02154c-.2709.2709-.6384.4231-1.0215.4231z" fill="#292929"/></svg>