<svg width="33" height="33" viewBox="0 0 33 33" fill="none" xmlns="http://www.w3.org/2000/svg">
<path d="M7.62319 10.5891C9.23438 10.5891 10.5405 9.28299 10.5405 7.67179C10.5405 6.06059 9.23438 4.75446 7.62319 4.75446C6.01199 4.75446 4.70585 6.06059 4.70585 7.67179C4.70585 9.28299 6.01199 10.5891 7.62319 10.5891Z" fill="#799DD2"/>
<path d="M13.2952 12.7998V28.9851H18.3205V20.9811C18.3205 18.8691 18.7178 16.8238 21.3365 16.8238C23.9192 16.8238 23.9512 19.2384 23.9512 21.1144V28.9864H28.9792V20.1104C28.9792 15.7504 28.0405 12.3998 22.9445 12.3998C20.4978 12.3998 18.8578 13.7424 18.1872 15.0131H18.1192V12.7998H13.2952V12.7998ZM5.10583 12.7998H10.1392V28.9851H5.10583V12.7998Z" fill="#799DD2"/>
</svg>
