<svg fill="none" height="32" viewBox="0 0 32 32" width="32" xmlns="http://www.w3.org/2000/svg"><path d="m25.5714 28h-1.9085c-.6063 0-1.1876-.2408-1.6163-.6695-.4286-.4286-.6695-1.01-.6695-1.6162v-6.1371c.0103-.2407-.0625-.4776-.206-.6711-.1436-.1935-.3492-.3318-.5825-.3918-.1358-.0207-.2744-.012-.4065.0255-.132.0374-.2546.1028-.3592.1916-.1078.0915-.1943.2053-.2535.3336s-.0897.268-.0894.4093v6.24c0 .6062-.2408 1.1876-.6695 1.6162-.4286.4287-1.01.6695-1.6162.6695h-1.9086c-.6062 0-1.1876-.2408-1.6162-.6695-.4287-.4286-.6695-1.01-.6695-1.6162v-6.24c0-1.9702.7826-3.8597 2.1758-5.2528 1.3931-1.3931 3.2826-2.1758 5.2528-2.1758s3.8596.7827 5.2528 2.1758c1.3931 1.3931 2.1757 3.2826 2.1757 5.2528v6.24c0 .6062-.2408 1.1876-.6694 1.6162-.4287.4287-1.0101.6695-1.6163.6695zm-5.1428-11.7828c.1788-.0113.3582-.0113.5371 0 .7673.1476 1.4581.5606 1.9513 1.1666.4932.6061.7572 1.3664.7459 2.1476v6.1829h1.9085v-6.24c0-1.364-.5418-2.6721-1.5063-3.6365-.9645-.9645-2.2726-1.5064-3.6365-1.5064-1.364 0-2.6721.5419-3.6366 1.5064-.9645.9644-1.5063 2.2725-1.5063 3.6365v6.24h1.9086v-6.24c0-.8599.34-1.6849.9459-2.2951s1.4285-.956 2.2884-.962zm-10.85717 11.7828h-2.28571c-.60621 0-1.18759-.2408-1.61625-.6695-.42865-.4286-.66947-1.01-.66947-1.6162v-11.4286c0-.6062.24082-1.1876.66947-1.6162.42866-.4287 1.01004-.6695 1.61625-.6695h2.28571c.60617 0 1.18757.2408 1.61627.6695.4286.4286.6694 1.01.6694 1.6162v11.4286c0 .6062-.2408 1.1876-.6694 1.6162-.4287.4287-1.0101.6695-1.61627.6695zm-2.28571-13.7143v11.4286h2.28571v-11.4286zm1.14285-3.4285c-.6781 0-1.34098-.2011-1.90481-.5779-.56382-.3767-1.00327-.91216-1.26277-1.53865s-.3274-1.31587-.19511-1.98094c.13229-.66508.45883-1.27599.93833-1.75549.47949-.47949 1.0904-.80603 1.75548-.93832.66508-.1323 1.35445-.0644 1.98094.1951.62647.2595 1.16197.69895 1.53867 1.26278.3768.56382.5778 1.2267.5778 1.90481 0 .90931-.3612 1.78138-1.0042 2.42436-.6429.64295-1.51501 1.00425-2.42433 1.00425zm0-4.57147c-.22603 0-.44699.06703-.63493.19261-.18795.12558-.33443.30407-.42093.5129s-.10913.43862-.06503.66031c.04409.22169.15294.42533.31277.58516s.36347.26868.58516.31278c.22169.04409.45148.02146.66031-.06504s.38732-.23298.5129-.42092c.12558-.18795.19261-.40891.19261-.63494 0-.30311-.12041-.5938-.33474-.80812-.21432-.21433-.50501-.33474-.80812-.33474z" fill="#292929"/></svg>