<?xml version="1.0" standalone="no"?>
<!DOCTYPE svg PUBLIC "-//W3C//DTD SVG 20010904//EN"
 "http://www.w3.org/TR/2001/REC-SVG-20010904/DTD/svg10.dtd">
<svg version="1.0" xmlns="http://www.w3.org/2000/svg"
 width="700.000000pt" height="700.000000pt" viewBox="0 0 700.000000 700.000000"
 preserveAspectRatio="xMidYMid meet">
<metadata>
Created by potrace 1.14, written by Peter Selinger 2001-2017
</metadata>
<g transform="translate(0.000000,700.000000) scale(0.100000,-0.100000)"
fill="#000000" stroke="none">
<path d="M3381 6955 c-173 -49 -306 -198 -345 -390 -14 -69 -15 -238 -2 -300
4 -16 18 -84 32 -150 13 -66 27 -131 30 -145 40 -187 187 -670 319 -1045 99
-280 90 -260 116 -260 20 0 28 15 74 155 50 153 105 326 109 345 1 6 14 48 28
95 23 74 102 362 114 413 2 9 6 25 8 35 44 177 76 329 91 427 4 22 8 47 10 55
8 39 19 202 17 260 -2 83 -34 207 -69 273 -45 82 -130 162 -218 204 -68 32
-87 36 -168 39 -61 3 -110 -1 -146 -11z"/>
<path d="M1285 6094 c-164 -39 -269 -118 -333 -248 -43 -85 -50 -121 -47 -222
5 -210 117 -368 387 -546 163 -108 195 -128 223 -144 61 -34 101 -57 110 -64
68 -53 968 -508 1040 -526 47 -12 38 26 -51 200 -91 181 -228 438 -275 519
-16 26 -29 50 -29 52 0 8 -186 314 -259 425 -265 404 -434 545 -666 555 -44 2
-89 2 -100 -1z"/>
<path d="M5519 6075 c-198 -65 -312 -184 -553 -578 -36 -60 -66 -110 -66 -112
0 -2 -14 -28 -31 -57 -124 -208 -491 -936 -501 -994 -2 -9 4 -21 13 -26 12 -8
50 7 160 62 285 145 699 372 847 466 29 19 54 34 56 34 11 0 303 202 376 260
212 169 303 324 302 515 -1 308 -308 527 -603 430z"/>
<path d="M3437 4403 c-1 -1 -25 -4 -53 -7 -44 -5 -74 -12 -184 -42 -47 -13
-187 -91 -247 -137 -306 -235 -430 -630 -311 -992 94 -289 316 -507 600 -589
316 -91 639 -16 872 204 253 239 347 581 251 914 -109 376 -451 638 -848 649
-43 1 -79 1 -80 0z"/>
<path d="M440 3965 c-178 -36 -322 -151 -381 -303 -29 -74 -35 -214 -13 -290
34 -114 126 -228 231 -285 68 -36 191 -67 278 -69 65 -1 170 7 205 17 8 2 31
7 50 10 19 3 42 8 50 10 8 2 26 6 40 9 14 3 36 7 50 10 14 3 39 8 55 12 204
43 723 201 1135 347 170 60 200 74 200 90 0 23 -18 32 -155 77 -145 47 -312
99 -335 105 -8 2 -85 25 -170 50 -591 175 -1040 251 -1240 210z"/>
<path d="M6250 3968 c-25 -4 -63 -10 -85 -13 -22 -3 -53 -7 -70 -10 -353 -66
-848 -201 -1312 -357 -96 -33 -123 -46 -123 -60 0 -23 14 -30 198 -94 378
-134 781 -260 1007 -316 161 -39 177 -43 250 -58 28 -6 61 -13 75 -15 14 -3
41 -8 60 -11 19 -2 43 -7 52 -10 26 -8 176 -8 228 1 62 9 157 42 207 71 141
81 228 228 232 390 6 220 -134 401 -364 469 -66 20 -276 28 -355 13z"/>
<path d="M4367 2647 c-6 -17 31 -97 209 -457 281 -564 537 -993 679 -1136 153
-154 334 -217 510 -177 211 48 358 233 357 449 0 196 -103 358 -342 537 -91
69 -298 209 -363 247 -18 10 -73 42 -122 72 -102 62 -114 69 -345 195 -225
123 -541 283 -561 283 -9 0 -19 -6 -22 -13z"/>
<path d="M2610 2598 c-271 -126 -719 -356 -945 -483 -496 -281 -656 -417 -737
-626 -15 -41 -21 -78 -21 -154 -1 -118 2 -131 50 -234 27 -55 118 -145 180
-178 85 -45 147 -60 238 -58 285 9 484 212 892 909 162 276 421 773 425 816 4
33 -23 36 -82 8z"/>
<path d="M3499 2313 c-30 -78 -68 -190 -141 -408 -44 -132 -83 -249 -88 -260
-20 -49 -129 -431 -159 -555 -71 -297 -86 -389 -86 -520 1 -109 12 -169 51
-257 118 -271 442 -366 687 -201 142 96 217 259 219 473 1 89 -2 119 -17 215
-19 119 -25 158 -29 175 -29 143 -44 206 -82 355 -25 96 -47 182 -49 190 -3
14 -26 95 -61 215 -8 28 -17 57 -19 65 -21 72 -59 194 -110 350 -53 160 -64
185 -83 188 -16 3 -25 -4 -33 -25z"/>
</g>
</svg>
