<svg width="33" height="33" viewBox="0 0 33 33" fill="none" xmlns="http://www.w3.org/2000/svg">
<path d="M27.1426 11.6558C27.1599 11.8891 27.1599 12.1211 27.1599 12.3531C27.1599 19.4531 21.7559 27.6345 11.8799 27.6345C8.83728 27.6345 6.01061 26.7531 3.63194 25.2225C4.06394 25.2718 4.47994 25.2891 4.92928 25.2891C7.3466 25.295 9.69547 24.4867 11.5973 22.9945C10.4765 22.9742 9.39004 22.6044 8.48959 21.9368C7.58914 21.2692 6.91966 20.337 6.57461 19.2705C6.90661 19.3198 7.23994 19.3531 7.58928 19.3531C8.07061 19.3531 8.55461 19.2865 9.00394 19.1705C7.78762 18.9249 6.69391 18.2656 5.90877 17.3047C5.12363 16.3438 4.69553 15.1407 4.69728 13.8998V13.8331C5.41328 14.2318 6.24394 14.4811 7.12394 14.5145C6.38673 14.0246 5.78224 13.3598 5.3644 12.5795C4.94656 11.7992 4.72836 10.9276 4.72928 10.0425C4.72928 9.04514 4.99461 8.13047 5.45994 7.33314C6.80946 8.99317 8.49261 10.3512 10.4004 11.3194C12.3082 12.2875 14.398 12.8441 16.5346 12.9531C16.4519 12.5531 16.4013 12.1385 16.4013 11.7225C16.4009 11.0171 16.5396 10.3186 16.8094 9.66679C17.0792 9.01504 17.4747 8.42284 17.9735 7.92406C18.4723 7.42528 19.0645 7.02969 19.7163 6.75991C20.368 6.49013 21.0666 6.35146 21.7719 6.35181C23.3186 6.35181 24.7146 6.99981 25.6959 8.04781C26.8983 7.8153 28.0513 7.37637 29.1039 6.75047C28.7032 7.99156 27.8636 9.04395 26.7426 9.71047C27.809 9.58885 28.8512 9.30841 29.8346 8.87847C29.1001 9.94927 28.19 10.8883 27.1426 11.6558V11.6558Z" fill="#799DD2"/>
</svg>
