<svg fill="none" height="32" viewBox="0 0 32 32" width="32" xmlns="http://www.w3.org/2000/svg"><path d="m10.9532 27.5144h-.1152c-2.32065-.0203-4.60777-.5564-6.69573-1.5695-.38407-.1804-.7003-.4791-.90241-.8522-.2021-.3731-.27946-.8011-.22074-1.2214.06385-.4231.25974-.8152.55971-1.1203s.68868-.5077 1.11062-.5788c1.29396-.1726 2.53876-.6088 3.65747-1.2815-1.94226-1.5186-3.43751-3.5343-4.3273-5.8335-.88979-2.2993-1.14097-4.7965-.72691-7.22687.05614-.38497.2217-.7457.47697-1.03927.25528-.29357.58953-.50762.96297-.61667.36332-.1141.75215-.11898 1.11822-.01402s.69324.31512.94091.6044c.84093 1.10269 1.8977 2.02249 3.10583 2.70331 1.20809.68082 2.54229 1.10832 3.92109 1.25652.0659-1.69644.7949-3.2993 2.0303-4.46381.6169-.59071 1.3452-1.05273 2.1424-1.35916.7973-.30642 1.6475-.45112 2.5012-.42565.8537.02546 1.6938.22057 2.4714.57397.7775.3534 1.4769.85801 2.0575 1.48443.1513.13372.3392.21895.5395.24462.2002.02567.4036-.00938.5837-.10063.3433-.16192.7256-.22288 1.1023-.17575.3766.04713.7321.2004 1.025.44192.2928.24153.511.56135.6289.92216.118.3608.1309.74772.0373 1.11559-.3321 1.36811-.9614 2.64631-1.8432 3.74391-.1943 4.0962-2.0002 7.9496-5.024 10.7198s-7.0202 4.2327-11.1178 4.0684zm0-2.8799h.1152c1.6742.0576 3.3432-.2177 4.9101-.81 1.567-.5923 3.0008-1.4897 4.2184-2.6403 1.2175-1.1505 2.1946-2.5313 2.8744-4.0623.6799-1.531 1.0491-3.1818 1.0862-4.8565.0238-.459.2131-.8938.5328-1.224.3512-.4446.6508-.9277.8928-1.43993-.5187.00098-1.0319-.10752-1.5058-.31844-.4739-.21091-.898-.51947-1.2445-.90552-.3332-.33039-.729-.59099-1.1641-.76654-.4352-.17554-.901-.26252-1.3702-.25582-.4739-.01226-.9455.06921-1.3879.23971-.4423.1705-.8466.42669-1.1896.75385-.4628.43919-.8022.99222-.9842 1.60377-.1819.61152-.2001 1.26012-.0526 1.88092l.3744 1.6415-1.6847.1152c-1.7264.1408-3.4627-.0954-5.0888-.6921-1.62605-.5967-3.10297-1.5397-4.32849-2.7638-.05256 1.8956.42162 3.7686 1.36981 5.4108.9482 1.6421 2.33326 2.9892 4.00118 3.8913l1.368.7776-.9072 1.2959c-.9811 1.2867-2.32525 2.2497-3.85906 2.7647.98393.2466 1.99515.3676 3.00946.36z" fill="#292929"/></svg>